<svg height="100%" width="100%">
  <defs>
    <pattern id="doodad" width="28.87" height="25" viewBox="0 0 34.64101615137755 30" patternUnits="userSpaceOnUse" patternTransform="rotate(135)">
      <rect width="100%" height="100%" fill="rgba(237, 242, 247, 1)"/>
      <path d="M-20-20h200v200h-200M33.77 25.5L25.98 21L18.19 25.5L18.19 34.5L25.98 39L33.77 34.5zM16.45 25.5L8.66 21L0.87 25.5L0.87 34.5L8.66 39L16.45 34.5zM7.79 10.5L0 6L-7.79 10.5L-7.79 19.5L0 24L7.79 19.5zM16.45-4.5L8.66-9L0.87-4.5L0.87 4.5L8.66 9L16.45 4.5zM33.77-4.5L25.98-9L18.19-4.5L18.19 4.5L25.98 9L33.77 4.5zM42.43 10.5L34.64 6L26.85 10.5L26.85 19.5L34.64 24L42.43 19.5zM25.11 10.5L17.32 6L9.53 10.5L9.53 19.5L17.32 24L25.11 19.5z" fill="rgba(247, 250, 252, 1)"/>
      <path d="M-20-20h200v200h-200M28.77 25.5L20.98 21L13.19 25.5L13.19 34.5L20.98 39L28.77 34.5zM11.45 25.5L3.66 21L-4.13 25.5L-4.13 34.5L3.66 39L11.45 34.5zM2.79 10.5L-5 6L-12.79 10.5L-12.79 19.5L-5 24L2.79 19.5zM11.45-4.5L3.66-9L-4.13-4.5L-4.13 4.5L3.66 9L11.45 4.5zM28.77-4.5L20.98-9L13.19-4.5L13.19 4.5L20.98 9L28.77 4.5zM37.43 10.5L29.64 6L21.85 10.5L21.85 19.5L29.64 24L37.43 19.5zM46.09 25.5L38.3 21L30.51 25.5L30.51 34.5L38.3 39L46.09 34.5zM20.11 40.5L12.32 36L4.53 40.5L4.53 49.5L12.32 54L20.11 49.5zM-5.87 25.5L-13.66 21L-21.45 25.5L-21.45 34.5L-13.66 39L-5.87 34.5zM-5.87-4.5L-13.66-9L-21.45-4.5L-21.45 4.5L-13.66 9L-5.87 4.5zM20.11-19.5L12.32-24L4.53-19.5L4.53-10.5L12.32-6L20.11-10.5zM46.09-4.5L38.3-9L30.51-4.5L30.51 4.5L38.3 9L46.09 4.5zM37.43 40.5L29.64 36L21.85 40.5L21.85 49.5L29.64 54L37.43 49.5zM2.79 40.5L-5 36L-12.79 40.5L-12.79 49.5L-5 54L2.79 49.5zM-14.53 10.5L-22.32 6L-30.11 10.5L-30.11 19.5L-22.32 24L-14.53 19.5zM2.79-19.5L-5-24L-12.79-19.5L-12.79-10.5L-5-6L2.79-10.5zM37.43-19.5L29.64-24L21.85-19.5L21.85-10.5L29.64-6L37.43-10.5zM54.75 10.5L46.96 6L39.17 10.5L39.17 19.5L46.96 24L54.75 19.5zM20.11 10.5L12.32 6L4.53 10.5L4.53 19.5L12.32 24L20.11 19.5z" fill="rgba(226, 232, 240, 1)"/>
    </pattern>
  </defs>
  <rect fill="url(#doodad)" height="200%" width="200%"/>
</svg>
